<?xml version="1.0" encoding="utf-8"?>
<!-- Generator: Adobe Illustrator 20.1.0, SVG Export Plug-In . SVG Version: 6.00 Build 0)  -->
<svg version="1.1" id="Layer_1" xmlns="http://www.w3.org/2000/svg" xmlns:xlink="http://www.w3.org/1999/xlink" x="0px" y="0px"
	 viewBox="0 0 512 334.5" style="enable-background:new 0 0 512 334.5;" xml:space="preserve">
<style type="text/css">
	.st0{display:none;}
	.st1{fill:#FFFFFF;}
	.st2{display:inline;}
	.st3{display:inline;fill:none;}
	.st4{font-family:'RobotoCondensed-Regular';}
	.st5{font-size:96px;}
	.st6{display:inline;fill:#FFFFFF;}
</style>
<g id="Guides" class="st0">
</g>
<g id="Rectangular_Outline">
	<rect class="st1" width="512" height="10.3"/>
	<rect y="324.1" class="st1" width="512" height="10.3"/>
	<rect class="st1" width="10.3" height="334.5"/>
	<rect x="501.7" class="st1" width="10.3" height="334.5"/>
	<g>
		<path class="st1" d="M289.1,97.1c-2.7-3.9-6.2-7-10.5-9.3s-9.4-3.5-15.4-3.5h-37.8v82.9h37.8c6,0,11.1-1,15.4-3.1
			c4.3-2,7.8-4.9,10.5-8.5s4.7-7.9,6-12.9s1.9-10.5,1.9-16.5c0-5.4-0.6-10.7-1.9-15.8C293.8,105.5,291.8,101,289.1,97.1z"/>
		<path class="st1" d="M170.7,5.2v324.1h170.7V5.2H170.7z M317.8,153.3c-2.6,8-6.3,14.7-11.3,20.1c-5,5.4-11.1,9.6-18.3,12.4
			c-7.3,2.9-15.6,4.3-25,4.3h-37.8v82.8h-24.6V61.4h62.4c9.4,0,17.8,1.6,25.1,4.8c7.3,3.2,13.4,7.7,18.3,13.4
			c4.9,5.8,8.7,12.6,11.2,20.5c2.6,7.9,3.8,16.5,3.8,25.9C321.7,136.2,320.4,145.3,317.8,153.3z"/>
	</g>
	<g>
		<g>
			<path class="st1" d="M484.8,246.7c-1.6,2.3-3.8,5.2-6.5,8.5s-6.4,6.5-11,9.6s-10.2,5.7-16.9,7.8c-6.7,2.2-14.8,3.3-24.3,3.3
				c-10.1,0-19.4-1.8-27.8-5.5s-15.6-9.2-21.6-16.6s-10.7-16.6-14-27.7c-3.3-11.1-5-24.1-5-38.9v-39.8c0-59.2,21.9-88.8,65.7-88.8
				c9.5,0,17.9,1.5,25.3,4.4c7.4,3,13.6,7.2,18.8,12.8c5.1,5.6,9.1,12.4,12,20.4s4.6,17.1,5.1,27.3H460c-1-13.2-4.4-23.5-10.1-30.9
				c-5.8-7.4-14.5-11.1-26.3-11.1c-7.5,0-13.9,1.4-19.1,4.1s-9.4,6.8-12.7,12.3c-3.3,5.5-5.6,12.3-7.1,20.5s-2.2,17.7-2.2,28.7v40.1
				c0,11.2,1,21,3.1,29.3s5,15.2,8.8,20.6c3.8,5.4,8.4,9.5,13.8,12.1c5.4,2.7,11.4,4,18,4c5.6,0,10.4-0.5,14.2-1.6
				c3.9-1.1,7.1-2.4,9.6-3.9c2.6-1.5,4.6-3.1,6.1-4.6s2.8-2.9,3.9-3.9v-48.8h-35.8v-22.7h60.3v79H484.8z"/>
		</g>
		<g>
			<path class="st1" d="M124.7,219.5c0-4.9-0.5-9.3-1.5-13.1s-2.9-7.2-5.7-10.4c-2.8-3.1-6.5-6.1-11.3-8.9
				c-4.8-2.8-10.9-5.6-18.4-8.5c-8.1-3-15.4-6.4-21.9-10.2s-12.1-8.2-16.7-13.2s-8.2-10.7-10.7-17.1c-2.5-6.4-3.8-13.7-3.8-21.9
				s1.3-15.9,4-22.9c2.6-7,6.4-13.1,11.3-18.3c4.9-5.2,10.8-9.2,17.7-12.1s14.7-4.4,23.2-4.4c9.5,0,17.9,1.8,25.2,5.4
				c7.3,3.6,13.4,8.3,18.4,14.2c5,5.9,8.7,12.7,11.2,20.5c2.5,7.7,3.8,15.7,3.8,24h-24.7c0-5.9-0.7-11.4-1.9-16.4
				c-1.3-5-3.3-9.4-6.1-13.1c-2.8-3.7-6.3-6.5-10.6-8.6c-4.3-2-9.3-3.1-15.3-3.1c-5.5,0-10.2,0.9-14.1,2.6s-7.2,4.1-9.7,7.2
				s-4.4,6.7-5.6,10.8c-1.2,4.2-1.8,8.7-1.8,13.7c0,8.9,3,16.4,8.9,22.4s15.1,11.4,27.4,16.1c9.5,3.4,17.7,7.1,24.5,11.3
				c6.8,4.1,12.4,8.8,16.7,14s7.5,11.1,9.5,17.6s3,13.8,3,22.1c0,8.6-1.3,16.4-4,23.4s-6.5,12.9-11.5,17.9s-11,8.7-18.1,11.4
				c-7.1,2.7-15.1,4-23.9,4c-7.7,0-15.3-1.4-22.8-4.1s-14.2-6.8-20-12.1c-5.9-5.4-10.6-12.1-14.2-20.1s-5.4-17.3-5.4-27.9h24.7
				c0,7.3,1,13.5,3,18.7s4.7,9.5,8.1,12.9c3.4,3.4,7.5,5.9,12,7.5s9.5,2.4,14.7,2.4c10.8,0,19-3,24.5-9
				C122,238,124.7,229.8,124.7,219.5z"/>
		</g>
	</g>
</g>
<g id="Circular_Outline" class="st0">
	<path class="st2" d="M512,167.2C512,55.8,440.8-39,341.3-74.2c-11-3.9-22.4-7.1-34.1-9.4c-16.6-3.4-33.7-5.1-51.3-5.1
		s-34.7,1.8-51.3,5.1c-11.7,2.4-23,5.5-34,9.4C71.2-39,0,55.8,0,167.2s71.2,206.3,170.7,241.4c11,3.9,22.4,7.1,34,9.4
		c16.6,3.4,33.7,5.1,51.3,5.1s34.7-1.8,51.3-5.1c11.7-2.4,23-5.6,34.1-9.4C440.8,373.5,512,278.7,512,167.2z M341.3,397.7
		C314.7,407.6,286,413,256,413s-58.8-5.4-85.3-15.2C77.1,363,10.3,272.9,10.3,167.2S77.1-28.5,170.7-63.2
		C197.3-73,226-78.4,256-78.4s58.8,5.4,85.3,15.3C435-28.5,501.7,61.6,501.7,167.2S435,363,341.3,397.7z"/>
	<g class="st2">
		<path d="M289.1,97.1c-2.7-3.9-6.2-7-10.5-9.3s-9.4-3.5-15.4-3.5h-37.8v82.9h37.8c6,0,11.1-1,15.4-3.1c4.3-2,7.8-4.9,10.5-8.5
			s4.7-7.9,6-12.9s1.9-10.5,1.9-16.5c0-5.4-0.6-10.7-1.9-15.8C293.8,105.5,291.8,101,289.1,97.1z"/>
		<path d="M256-78.5c-30,0-58.8,5.4-85.3,15.2v460.9c26.6,9.8,55.3,15.2,85.3,15.2s58.8-5.4,85.3-15.3V-63.2
			C314.8-73.1,286-78.5,256-78.5z M317.8,153.3c-2.6,8-6.3,14.7-11.3,20.1c-5,5.4-11.1,9.6-18.3,12.4c-7.3,2.9-15.6,4.3-25,4.3
			h-37.8v82.8h-24.6V61.4h62.4c9.4,0,17.8,1.6,25.1,4.8c7.3,3.2,13.4,7.7,18.3,13.4c4.9,5.8,8.7,12.6,11.2,20.5
			c2.6,7.9,3.8,16.5,3.8,25.9C321.7,136.2,320.4,145.3,317.8,153.3z"/>
	</g>
	<g class="st2">
		<g>
			<path d="M484.8,246.7c-1.6,2.3-3.8,5.2-6.5,8.5s-6.4,6.5-11,9.6s-10.2,5.7-16.9,7.8c-6.7,2.2-14.8,3.3-24.3,3.3
				c-10.1,0-19.4-1.8-27.8-5.5s-15.6-9.2-21.6-16.6s-10.7-16.6-14-27.7c-3.3-11.1-5-24.1-5-38.9v-39.8c0-59.2,21.9-88.8,65.7-88.8
				c9.5,0,17.9,1.5,25.3,4.4c7.4,3,13.6,7.2,18.8,12.8c5.1,5.6,9.1,12.4,12,20.4s4.6,17.1,5.1,27.3H460c-1-13.2-4.4-23.5-10.1-30.9
				c-5.8-7.4-14.5-11.1-26.3-11.1c-7.5,0-13.9,1.4-19.1,4.1s-9.4,6.8-12.7,12.3c-3.3,5.5-5.6,12.3-7.1,20.5s-2.2,17.7-2.2,28.7v40.1
				c0,11.2,1,21,3.1,29.3s5,15.2,8.8,20.6c3.8,5.4,8.4,9.5,13.8,12.1c5.4,2.7,11.4,4,18,4c5.6,0,10.4-0.5,14.2-1.6
				c3.9-1.1,7.1-2.4,9.6-3.9c2.6-1.5,4.6-3.1,6.1-4.6s2.8-2.9,3.9-3.9v-48.8h-35.8v-22.7h60.3v79H484.8z"/>
		</g>
		<g>
			<path d="M124.7,219.5c0-4.9-0.5-9.3-1.5-13.1s-2.9-7.2-5.7-10.4c-2.8-3.1-6.5-6.1-11.3-8.9c-4.8-2.8-10.9-5.6-18.4-8.5
				c-8.1-3-15.4-6.4-21.9-10.2s-12.1-8.2-16.7-13.2s-8.2-10.7-10.7-17.1c-2.5-6.4-3.8-13.7-3.8-21.9s1.3-15.9,4-22.9
				c2.6-7,6.4-13.1,11.3-18.3c4.9-5.2,10.8-9.2,17.7-12.1s14.7-4.4,23.2-4.4c9.5,0,17.9,1.8,25.2,5.4c7.3,3.6,13.4,8.3,18.4,14.2
				c5,5.9,8.7,12.7,11.2,20.5c2.5,7.7,3.8,15.7,3.8,24h-24.7c0-5.9-0.7-11.4-1.9-16.4c-1.3-5-3.3-9.4-6.1-13.1
				c-2.8-3.7-6.3-6.5-10.6-8.6c-4.3-2-9.3-3.1-15.3-3.1c-5.5,0-10.2,0.9-14.1,2.6s-7.2,4.1-9.7,7.2s-4.4,6.7-5.6,10.8
				c-1.2,4.2-1.8,8.7-1.8,13.7c0,8.9,3,16.4,8.9,22.4s15.1,11.4,27.4,16.1c9.5,3.4,17.7,7.1,24.5,11.3c6.8,4.1,12.4,8.8,16.7,14
				s7.5,11.1,9.5,17.6s3,13.8,3,22.1c0,8.6-1.3,16.4-4,23.4s-6.5,12.9-11.5,17.9s-11,8.7-18.1,11.4c-7.1,2.7-15.1,4-23.9,4
				c-7.7,0-15.3-1.4-22.8-4.1s-14.2-6.8-20-12.1c-5.9-5.4-10.6-12.1-14.2-20.1s-5.4-17.3-5.4-27.9h24.7c0,7.3,1,13.5,3,18.7
				s4.7,9.5,8.1,12.9c3.4,3.4,7.5,5.9,12,7.5s9.5,2.4,14.7,2.4c10.8,0,19-3,24.5-9C122,238,124.7,229.8,124.7,219.5z"/>
		</g>
	</g>
</g>
<g id="Text">
	<g class="st0">
		<g class="st2">
			<path d="M337.2,195c-0.6,0.8-1.3,1.8-2.3,3s-2.2,2.3-3.8,3.3s-3.6,2-5.9,2.7c-2.3,0.8-5.1,1.1-8.5,1.1c-3.5,0-6.8-0.6-9.7-1.9
				s-5.4-3.2-7.5-5.8s-3.7-5.8-4.9-9.7c-1.2-3.9-1.7-8.4-1.7-13.6v-13.9c0-20.6,7.6-31,22.9-31c3.3,0,6.3,0.5,8.8,1.5
				c2.6,1,4.8,2.5,6.5,4.5c1.8,1.9,3.2,4.3,4.2,7.1s1.6,6,1.8,9.5h-8.6c-0.3-4.6-1.5-8.2-3.5-10.8s-5.1-3.9-9.2-3.9
				c-2.6,0-4.8,0.5-6.7,1.4c-1.8,0.9-3.3,2.4-4.4,4.3c-1.1,1.9-2,4.3-2.5,7.1c-0.5,2.9-0.8,6.2-0.8,10v14c0,3.9,0.4,7.3,1.1,10.2
				s1.7,5.3,3.1,7.2s2.9,3.3,4.8,4.2s4,1.4,6.3,1.4c2,0,3.6-0.2,5-0.6c1.3-0.4,2.5-0.8,3.4-1.4c0.9-0.5,1.6-1.1,2.1-1.6s1-1,1.4-1.4
				v-17h-12.5V167h21v28H337.2z"/>
		</g>
		<g class="st2">
			<path d="M208.8,185.4c0-1.7-0.2-3.2-0.5-4.6c-0.4-1.3-1-2.5-2-3.6s-2.3-2.1-3.9-3.1c-1.7-1-3.8-2-6.4-3c-2.8-1-5.4-2.2-7.6-3.6
				c-2.3-1.3-4.2-2.9-5.8-4.6c-1.6-1.7-2.9-3.7-3.7-6c-0.9-2.2-1.3-4.8-1.3-7.6c0-2.9,0.5-5.5,1.4-8c0.9-2.4,2.2-4.6,3.9-6.4
				c1.7-1.8,3.8-3.2,6.2-4.2s5.1-1.5,8.1-1.5c3.3,0,6.2,0.6,8.8,1.9c2.5,1.2,4.7,2.9,6.4,5s3,4.4,3.9,7.1c0.9,2.7,1.3,5.5,1.3,8.4
				H209c0-2.1-0.2-4-0.7-5.7c-0.5-1.8-1.2-3.3-2.1-4.6c-1-1.3-2.2-2.3-3.7-3s-3.3-1.1-5.3-1.1c-1.9,0-3.5,0.3-4.9,0.9
				c-1.4,0.6-2.5,1.4-3.4,2.5s-1.5,2.3-2,3.8c-0.4,1.5-0.6,3-0.6,4.8c0,3.1,1,5.7,3.1,7.8s5.3,4,9.6,5.6c3.3,1.2,6.2,2.5,8.5,3.9
				c2.4,1.4,4.3,3.1,5.8,4.9c1.5,1.8,2.6,3.9,3.3,6.1c0.7,2.3,1.1,4.8,1.1,7.7c0,3-0.5,5.7-1.4,8.2s-2.3,4.5-4,6.2s-3.8,3-6.3,4
				c-2.5,0.9-5.3,1.4-8.3,1.4c-2.7,0-5.3-0.5-7.9-1.4c-2.6-0.9-4.9-2.4-7-4.2c-2-1.9-3.7-4.2-5-7s-1.9-6-1.9-9.7h8.6
				c0,2.5,0.3,4.7,1,6.5s1.6,3.3,2.8,4.5s2.6,2.1,4.2,2.6c1.6,0.6,3.3,0.8,5.1,0.8c3.8,0,6.6-1,8.5-3.1
				C207.8,191.9,208.8,189.1,208.8,185.4z"/>
		</g>
	</g>
	<g class="st0">
		<rect x="284.3" y="108.9" class="st3" width="59.5" height="116.6"/>
		<text transform="matrix(1 0 0 1 285.7234 180.9458)" class="st2 st4 st5">G</text>
		<rect x="226.2" y="108.9" class="st3" width="59.5" height="116.6"/>
		<text transform="matrix(1 0 0 1 229.4021 180.9058)" class="st6 st4 st5">P</text>
		<rect x="168.2" y="108.9" class="st3" width="59.5" height="116.6"/>
		<text transform="matrix(1 0 0 1 173.0516 180.9058)" class="st2 st4 st5">S</text>
	</g>
</g>
</svg>
